# xmcd
#
# Track frame offsets:
#  225
#  31500
#  48391
#  67331
#  83773
#  114809
#  143161
#  157371
#  190397
#  207276
#  232530
#  246109
#  275898
#  309456
#
# Disc length: 4382 seconds
#
# Revision: 0
# Processed by: cddbd v1.5.1PL2 Copyright (c) Steve Scherf et al.
# Submitted via: Collectorz.com_Music_Collector 6.9
#
DISCID=c2111b0e
DTITLE=The O'Jays - Best Of The O'Jays
DYEAR=2000
DGENRE=Soul
TTITLE0=Family Reunion
TTITLE1=Survival
TTITLE2=Give The People What They Want
TTITLE3=Let Me Make Love To You
TTITLE4=I Love Music
TTITLE5=Stairway To Heaven
TTITLE6=Back Stabbers
TTITLE7=For The Love Of Money
TTITLE8=Sunshine
TTITLE9=You Got Your Hooks In Me
TTITLE10=Love Train
TTITLE11=Livin' For The Weekend
TTITLE12=Wildflower
TTITLE13=Darlin' Darlin' Baby (Sweet, Tender Love)
EXTD=
EXTT0=
EXTT1=
EXTT2=
EXTT3=
EXTT4=
EXTT5=
EXTT6=
EXTT7=
EXTT8=
EXTT9=
EXTT10=
EXTT11=
EXTT12=
EXTT13=
PLAYORDER=
